<svg width="19" height="6" viewBox="0 0 19 6" fill="none" xmlns="http://www.w3.org/2000/svg">
<path d="M2.10994 6L-6.87922e-08 6L2.90117 3.32629e-08L4.76846 5.46722e-08L6.78345 4.43761L11.3304 4.40506C11.4113 4.40145 11.5709 4.33996 11.5625 4.12297C11.5709 3.87993 11.3761 3.81194 11.2776 3.80832L9.31538 3.80832L9.31538 2.27848L11.1721 2.27848C11.2389 2.27848 11.3726 2.22423 11.3726 2.00723C11.3726 1.84231 11.2389 1.76492 11.1721 1.74684L8.62965 1.74684L8.62965 3.80832L6.91005 3.80832L6.91005 0.01085L11.246 0.01085C11.8016 0.0723329 12.9508 0.514286 13.1027 1.79024C13.1027 2.47595 12.8636 2.87884 12.744 2.99458C12.9023 3.12116 13.2188 3.54792 13.2188 4.24232C13.2356 5.61374 12.2412 5.98553 11.7418 6L5.3276 6L3.71349 2.43038L2.10994 6Z" fill="#BD9941"/>
<path d="M13.6513 1.63834L13.6513 1.56517e-07L19 0.0217L19 1.63834L13.6513 1.63834Z" fill="#BD9941"/>
<path d="M19 2.18083L13.6513 2.18083L13.6513 3.80832L19 3.80832L19 2.18083Z" fill="#BD9941"/>
<path d="M19 4.39421L13.6513 4.39421L13.6513 6L19 6L19 4.39421Z" fill="#BD9941"/>
</svg>
