<svg width="14" height="20" viewBox="0 0 14 20" fill="none" xmlns="http://www.w3.org/2000/svg">
<path d="M2.69343 6.09507C2.69343 3.77161 4.58411 1.88146 6.90826 1.88146C9.23172 1.88146 11.1222 3.77161 11.1222 6.09507V8.77786H13.0033V6.09507C13.0033 2.73413 10.2683 0 6.90757 0C3.5475 0 0.8125 2.73413 0.8125 6.09507V8.77786H2.69343V6.09507Z" fill="#BD9941"/>
<path d="M0 8.95152C0 8.43896 0.415517 8.02344 0.928083 8.02344H12.8814C13.394 8.02344 13.8095 8.43895 13.8095 8.95152V19.0756C13.8095 19.5882 13.394 20.0037 12.8814 20.0037H0.928083C0.415517 20.0037 0 19.5882 0 19.0756V8.95152Z" fill="#213359"/>
<path d="M5.49134 17.9977C5.28401 17.7768 4.97408 17.7263 4.68842 17.8182C4.79958 17.5225 4.76211 17.1912 4.54906 16.9646C4.35725 16.7603 4.07837 16.7068 3.8118 16.7701C3.88603 16.4967 3.84517 16.2057 3.65211 15.9996C3.4603 15.7961 3.1816 15.7425 2.91485 15.8059C2.98854 15.5325 2.94768 15.2415 2.75533 15.0354C2.45343 14.7144 1.93153 14.7283 1.58895 15.0672C1.24798 15.4066 1.02905 16.0203 1.3338 16.3806C1.63784 16.7407 1.98631 16.5221 2.2536 16.4587C2.1799 16.7321 1.95758 16.9869 2.23058 17.3448C2.50304 17.7038 2.88327 17.4863 3.15037 17.4224C3.07615 17.6958 2.86364 17.9759 3.12682 18.3085C3.39178 18.6409 3.82608 18.4637 4.11245 18.3717C4.00183 18.6668 3.76505 18.9838 4.06927 19.3418C4.37278 19.6995 5.07489 19.5327 5.41818 19.1939C5.75969 18.8556 5.79199 18.3188 5.49134 17.9977Z" fill="#BD9941"/>
<path d="M11.6529 10.9641C11.4029 11.0008 11.0935 10.8524 11.0935 10.8524C11.0935 10.8524 10.433 10.2622 9.68985 9.61428C9.0873 9.08846 8.77006 9.10916 8.33041 9.35146C7.6076 9.74953 5.8715 10.7593 5.04842 11.2763C4.76953 11.4398 4.53223 11.6924 4.53223 12.045C4.53223 12.5002 4.88819 12.8688 5.32783 12.8688C5.49716 12.8688 5.63473 12.7958 5.78229 12.7193C6.14503 12.5369 7.00684 12.0714 7.58851 11.7527C8.22443 11.4046 8.62018 11.8068 8.62018 11.8068C8.62018 11.8068 10.9156 14.1726 11.5619 14.814C11.9812 15.2312 12.559 15.0378 12.7433 15.0137C12.9276 14.9907 13.8233 14.8076 13.8233 14.8076V10.4709C13.8233 10.4709 12.1764 10.887 11.6529 10.9641Z" fill="#BD9941"/>
<path d="M10.9569 15.569C10.9533 15.5656 9.63312 14.2009 8.2992 12.8162C8.2992 12.8162 7.89773 12.4019 7.36888 12.6424C6.99792 12.811 6.52045 13.0412 6.16039 13.2155C5.76463 13.4294 5.41973 13.4951 5.34765 13.4951C4.58452 13.4951 3.96519 12.8542 3.96519 12.0637C3.96519 11.5511 4.22784 11.1047 4.61967 10.8515C5.17029 10.4568 6.43855 9.75721 6.43855 9.75721C6.43855 9.75721 6.05262 9.24976 5.20598 9.24976C4.35987 9.24976 2.59255 10.4504 2.59255 10.4504C2.59255 10.4504 2.09081 10.7835 1.37657 10.4845L0 9.98738V14.9489C0 14.9489 0.392897 15.0674 0.74654 15.2164C0.82719 14.981 0.954408 14.7625 1.13408 14.583C1.72058 14.0041 2.69176 13.9979 3.22561 14.5669C3.38637 14.7389 3.49807 14.9471 3.5557 15.1737C3.77106 15.2428 3.96466 15.3643 4.12185 15.5317C4.28262 15.7026 4.39431 15.9108 4.45248 16.138C4.66802 16.207 4.8609 16.3285 5.01809 16.4964C5.19509 16.6847 5.3125 16.9136 5.36835 17.1614C5.59245 17.2294 5.79639 17.3543 5.96001 17.5292C6.27958 17.8698 6.3943 18.3328 6.32454 18.7799C6.32454 18.7799 6.52277 19.0112 6.64535 19.1382C6.88213 19.3834 7.26753 19.3834 7.5043 19.1382C7.74036 18.8932 7.7409 18.4939 7.5043 18.2482C7.49609 18.2402 6.64143 17.3347 6.72029 17.2529C6.79916 17.1712 7.86258 18.3426 7.88275 18.3633C8.11881 18.609 8.50475 18.6085 8.74152 18.3633C8.97776 18.1183 8.97829 17.719 8.74152 17.4733C8.73063 17.4624 7.75767 16.3917 7.81994 16.3267C7.89024 16.2536 9.08535 17.5227 9.08767 17.5227C9.32551 17.7459 9.69254 17.7431 9.92182 17.5056C10.1436 17.2754 10.1493 16.913 9.95393 16.6656C9.95001 16.6513 8.9592 15.5438 9.02147 15.4794C9.08374 15.4148 10.0945 16.4573 10.0974 16.4597C10.3336 16.7054 10.7196 16.7046 10.9563 16.4597C11.1929 16.214 11.1936 15.8146 10.9569 15.569Z" fill="#BD9941"/>
</svg>
