<svg width="20" height="14" viewBox="0 0 20 14" fill="none" xmlns="http://www.w3.org/2000/svg">
<path fill-rule="evenodd" clip-rule="evenodd" d="M5.96509 0.0563866C4.05927 0.319791 2.46676 1.23958 1.35146 2.72106C0.745494 3.52603 0.247063 4.66598 0.0688421 5.65447C-0.0325195 6.21704 -0.0197974 7.50735 0.0928208 8.07725C0.567482 10.4796 2.31382 12.4729 4.621 13.2459C5.94965 13.691 7.51431 13.6974 8.89044 13.2631C9.29379 13.1359 10.1942 12.7142 10.4112 12.551C10.5227 12.4671 10.5389 12.4987 9.19537 10.1833C8.89463 9.66495 8.49646 8.97867 8.3106 8.65814L7.97264 8.07542L7.6829 8.24987C7.15562 8.56741 6.61384 8.60165 6.06206 8.35238C4.99221 7.86903 4.73682 6.43772 5.57158 5.60295C6.17881 4.99572 7.04101 4.93248 7.72672 5.44483C8.12259 5.74059 8.37882 6.10363 9.19374 7.52322C9.5873 8.20877 10.2095 9.28799 10.5763 9.9215C10.9432 10.555 11.5682 11.6388 11.9652 12.3299L12.6871 13.5864L15.6219 13.5999C17.2361 13.6074 18.5568 13.5995 18.5568 13.5823C18.5568 13.5652 18.3641 13.2175 18.1286 12.8096C17.893 12.4018 17.4023 11.5498 17.0379 10.9163C16.6736 10.2828 15.8917 8.92804 15.3005 7.90579C14.7093 6.88353 13.9012 5.48169 13.5048 4.79059C12.6075 3.2264 12.2651 2.72284 11.6871 2.11781C10.7237 1.10927 9.44704 0.409163 8.06452 0.131308C7.55101 0.0281142 6.45326 -0.0110482 5.96509 0.0563866Z" fill="#153981"/>
<path fill-rule="evenodd" clip-rule="evenodd" d="M11.2042 0.0215709C11.2042 0.0334557 11.3632 0.156441 11.5576 0.29487C12.0627 0.65461 12.7757 1.35817 13.1929 1.90859C13.5425 2.36996 13.712 2.65163 15.3253 5.45504C15.7511 6.19489 16.1149 6.7839 16.1338 6.76395C16.1693 6.72657 16.6115 5.96745 18.1678 3.27226C19.8379 0.380159 20 0.0947647 20 0.0472776C20 0.0195289 18.1844 0 15.6021 0C13.1832 0 11.2042 0.00973839 11.2042 0.0215709Z" fill="#D1B075"/>
</svg>
