<svg width="20" height="16" viewBox="0 0 20 16" fill="none" xmlns="http://www.w3.org/2000/svg">
<path d="M3.68956 4.95031C4.10042 5.64002 4.51795 6.33862 4.9377 7.04316C5.0445 7.22263 5.15277 7.40359 5.26105 7.5838C5.45016 7.9027 5.64002 8.2216 5.82987 8.54124C6.44764 9.57728 7.06615 10.6133 7.6728 11.6301C7.98205 12.1485 8.73035 12.1477 9.03886 11.6301C9.45936 10.9241 9.88431 10.2106 10.3122 9.49422C10.4331 9.29027 10.4331 9.0359 10.3122 8.83269C9.95625 8.23569 9.59953 7.6372 9.24577 7.04316H15.795C14.7315 8.82602 13.6191 10.6927 12.52 12.5363L12.2315 13.0102L11.9631 13.4515L11.9542 13.4648C11.418 14.2361 10.6534 14.8287 9.76194 15.1365C9.31845 15.2892 8.8453 15.373 8.35286 15.373C7.86117 15.373 7.38876 15.2907 6.94824 15.1387C6.02269 14.8205 5.23435 14.1968 4.69668 13.3833C4.62326 13.2609 4.54984 13.1371 4.47568 13.0139C3.31207 11.0605 2.12548 9.07075 0.99377 7.17146C0.967072 7.12845 0.941857 7.08618 0.916642 7.04316C0.717888 6.71092 0.521359 6.3809 0.327054 6.05533C0.115693 5.54212 0 4.97998 0 4.39113C0 4.09374 0.0289232 3.80228 0.0860279 3.52195C0.272916 2.5927 0.752002 1.7695 1.42465 1.15396C2.20632 0.436814 3.24755 1.67219e-08 4.39113 1.67219e-08C4.62326 1.67219e-08 5.04301 4.15753e-05 5.04301 0.000133649V1.67219e-08H20C19.3793 1.03678 18.6681 2.22857 17.896 3.52195H4.50015C3.76743 3.52195 3.31356 4.32068 3.68956 4.95031Z" fill="#4A4E69"/>
</svg>
